<?xml version="1.0" encoding="utf-8"?>
<!-- Generator: Adobe Illustrator 19.0.0, SVG Export Plug-In . SVG Version: 6.00 Build 0)  -->
<svg version="1.1" id="Layer_1" xmlns="http://www.w3.org/2000/svg" xmlns:xlink="http://www.w3.org/1999/xlink" x="0px" y="0px"
	 viewBox="0 0 50 50" style="enable-background:new 0 0 50 50;" xml:space="preserve">
<style type="text/css">
	.st0{fill:#ffffff;}
</style>
<path id="XMLID_196_" class="st0" d="M35.6,25c6.7-4.3,11.3-12.5,11.3-21.9c0-1.1-0.1-2.1-0.2-3.1H3.3C3.2,1,3.1,2.1,3.1,3.1
	c0,9.4,4.6,17.6,11.3,21.9C7.7,29.3,3.1,37.5,3.1,46.9c0,1.1,0.1,2.1,0.2,3.1h43.4c0.1-1,0.2-2.1,0.2-3.1
	C46.9,37.5,42.3,29.3,35.6,25L35.6,25z M7.8,46.9c0-9.1,3.9-16.9,10.9-19.4v-4.9C11.7,20,7.8,12.2,7.8,3.1l0,0h34.4
	c0,9.1-3.9,16.9-10.9,19.4v4.9c7,2.6,10.9,10.3,10.9,19.4H7.8z M30.3,32.7c-3.5-2-3.7-4.6-3.7-6.1v-3.1c0-1.6,0.2-4.1,3.7-6.1
	c1.9-1.1,3.5-2.8,4.7-4.8H15c1.2,2.1,2.9,3.7,4.7,4.8c3.5,2,3.7,4.6,3.7,6.1v3.1c0,1.6-0.2,4.1-3.7,6.1c-3.5,2.1-6.2,6.1-7,11.1
	h24.5C36.4,38.8,33.8,34.8,30.3,32.7L30.3,32.7z"/>
</svg>
