<?xml version="1.0" encoding="utf-8"?>
<!-- Generator: Adobe Illustrator 19.0.0, SVG Export Plug-In . SVG Version: 6.00 Build 0)  -->
<svg version="1.1" xmlns="http://www.w3.org/2000/svg" xmlns:xlink="http://www.w3.org/1999/xlink" x="0px" y="0px"
	 viewBox="0 0 50 50" style="enable-background:new 0 0 50 50;" xml:space="preserve">
<style type="text/css">
	.st0{display:none;}
	.st1{display:inline;}
	.st2{fill:#ffffff;}
	.st3{fill:#FFFFFF;}
</style>
<g id="Layer_1" class="st0">
	<path id="XMLID_196_" class="st1" d="M35.6,25c6.7-4.3,11.3-12.5,11.3-21.9c0-1.1-0.1-2.1-0.2-3.1H3.3C3.2,1,3.1,2.1,3.1,3.1
		c0,9.4,4.6,17.6,11.3,21.9C7.7,29.3,3.1,37.5,3.1,46.9c0,1.1,0.1,2.1,0.2,3.1h43.4c0.1-1,0.2-2.1,0.2-3.1
		C46.9,37.5,42.3,29.3,35.6,25L35.6,25z M7.8,46.9c0-9.1,3.9-16.9,10.9-19.4v-4.9C11.7,20,7.8,12.2,7.8,3.1l0,0h34.4
		c0,9.1-3.9,16.9-10.9,19.4v4.9c7,2.6,10.9,10.3,10.9,19.4H7.8z M30.3,32.7c-3.5-2-3.7-4.6-3.7-6.1v-3.1c0-1.6,0.2-4.1,3.7-6.1
		c1.9-1.1,3.5-2.8,4.7-4.8H15c1.2,2.1,2.9,3.7,4.7,4.8c3.5,2,3.7,4.6,3.7,6.1v3.1c0,1.6-0.2,4.1-3.7,6.1c-3.5,2.1-6.2,6.1-7,11.1
		h24.5C36.4,38.8,33.8,34.8,30.3,32.7L30.3,32.7z"/>
</g>
<g id="Layer_2" class="st0">
	<g id="XMLID_249_" class="st1">
		<path id="XMLID_161_" class="st2" d="M21.4,31.2c-0.7,0-1.3-0.3-1.8-0.8c-4.8-4.8-4.8-12.5,0-17.3l9.6-9.6C31.5,1.3,34.5,0,37.8,0
			s6.3,1.3,8.6,3.6c4.8,4.8,4.8,12.5,0,17.3L42,25.2c-1,1-2.7,1-3.7,0s-1-2.7,0-3.7l4.4-4.4c2.7-2.7,2.7-7.2,0-9.9
			c-1.3-1.3-3.1-2.1-5-2.1s-3.6,0.7-5,2.1l-9.6,9.6c-2.7,2.7-2.7,7.2,0,9.9c1,1,1,2.7,0,3.7C22.7,30.9,22.1,31.2,21.4,31.2
			L21.4,31.2z"/>
		<path id="XMLID_82_" class="st2" d="M12.2,50c-3.3,0-6.3-1.3-8.6-3.6c-4.8-4.8-4.8-12.5,0-17.3L8,24.8c1-1,2.7-1,3.7,0
			c1,1,1,2.7,0,3.7l-4.4,4.4c-2.7,2.7-2.7,7.2,0,9.9c1.3,1.3,3.1,2.1,5,2.1s3.6-0.7,5-2.1l9.6-9.6c2.7-2.7,2.7-7.2,0-9.9
			c-1-1-1-2.7,0-3.7c1-1,2.7-1,3.7,0c4.8,4.8,4.8,12.5,0,17.3l-9.6,9.6C18.5,48.7,15.5,50,12.2,50z"/>
	</g>
</g>
<g id="Layer_3">
	<path id="XMLID_164_" class="st3" d="M18.8,0.1L0.1,25h18.7L6.3,49.9l43.5-31.1H25L43.7,0.1H18.8z"/>
</g>
</svg>
