<?xml version="1.0" encoding="utf-8"?>
<!-- Generator: Adobe Illustrator 14.0.0, SVG Export Plug-In  -->
<!DOCTYPE svg PUBLIC "-//W3C//DTD SVG 1.1//EN" "http://www.w3.org/Graphics/SVG/1.1/DTD/svg11.dtd" [
	<!ENTITY ns_flows "http://ns.adobe.com/Flows/1.0/">
]>
<svg version="1.1"
	 xmlns="http://www.w3.org/2000/svg" xmlns:xlink="http://www.w3.org/1999/xlink" xmlns:a="http://ns.adobe.com/AdobeSVGViewerExtensions/3.0/"
	 x="0px" y="0px" width="80px" height="33px" viewBox="0 0 80 33" enable-background="new 0 0 80 33" xml:space="preserve">
<defs>
</defs>
<g>
	<path fill="#4E4E4E" d="M35.864,25.731c-1.309,0.896-3.057,1.307-4.457,1.307c-2.496,0-4.587-1.56-4.587-5.637v-8.695
		c0-0.342,0.251-0.623,0.563-0.623h2.214c0.312,0,0.562,0.281,0.562,0.623v9.099c0,1.529,0.808,2.055,1.872,2.055
		c1.247,0,2.77-0.715,3.644-1.37v-9.783c0-0.342,0.25-0.623,0.562-0.623h2.306c0.312,0,0.562,0.281,0.562,0.623v14.24
		c0,5.076-3.241,5.761-7.667,5.761h-1.217c-0.373,0-0.654-0.281-0.654-0.685v-1.529c0-0.403,0.281-0.685,0.654-0.685
		c4.58,0,5.644-0.122,5.644-3.082V25.731L35.864,25.731z"/>
	<path fill="#4E4E4E" d="M50.349,11.797c0.251-0.251,0.623-0.251,0.844-0.03l1.406,1.461c0.214,0.221,0.152,0.625-0.068,0.845
		l-3.46,3.461l4.775,8.155c0.274,0.502-0.067,1.028-0.69,1.028h-2.024c-0.435,0-0.595-0.215-0.782-0.526l-3.706-6.512l-1.688,1.559
		v4.861c0,0.343-0.244,0.618-0.557,0.618h-2.152c-0.312,0-0.562-0.275-0.562-0.618V7.972c0-0.342,0.25-0.624,0.562-0.624h2.152
		c0.312,0,0.557,0.282,0.557,0.624v9.09L50.349,11.797L50.349,11.797z"/>
	<path fill="#4E4E4E" d="M57.025,18.852l5.402-1.518l-0.217-0.777c-0.394-1.378-1.92-2.21-3.419-1.79
		c-1.469,0.413-2.376,1.93-1.984,3.309L57.025,18.852L57.025,18.852z M63.592,26.067c-4.231,1.192-7.419,1.378-8.836-3.659
		l-0.888-3.152c-0.875-3.118,0.953-6.288,4.103-7.17c3.242-0.914,6.513,0.818,7.395,3.938l0.419,1.499
		c0.23,0.807-0.265,1.695-1.078,1.92l-6.993,1.966l0.088,0.303c0.759,2.702,2.522,2.299,6.364,1.221
		c0.364-0.102,0.706,0.091,0.821,0.479l0.399,1.438c0.103,0.365-0.091,0.705-0.441,0.838L63.592,26.067L63.592,26.067z"/>
	<g>
		<defs>
			<rect id="SVGID_1_" width="79.999" height="32.707"/>
		</defs>
		<clipPath id="SVGID_2_">
			<use xlink:href="#SVGID_1_"  overflow="visible"/>
		</clipPath>
		<path clip-path="url(#SVGID_2_)" fill="#4E4E4E" d="M76.76,25.717c-1.309,0.897-3.058,1.308-4.458,1.308
			c-2.495,0-4.586-1.56-4.586-5.638v-8.694c0-0.343,0.251-0.624,0.563-0.624h2.213c0.312,0,0.562,0.281,0.562,0.624v9.099
			c0,1.528,0.813,2.054,1.871,2.054c1.247,0,2.775-0.715,3.644-1.369v-9.783c0-0.343,0.251-0.624,0.563-0.624h2.305
			c0.318,0,0.562,0.281,0.562,0.624v14.24c0,5.075-3.239,5.76-7.667,5.76h-1.217c-0.372,0-0.654-0.28-0.654-0.685V30.48
			c0-0.403,0.282-0.686,0.654-0.686c4.586,0,5.645-0.122,5.645-3.081V25.717L76.76,25.717z"/>
		<path clip-path="url(#SVGID_2_)" fill="#4E4E4E" d="M14.968,9.648l-0.428-1.951c-0.067-0.3-0.495-0.465-0.906-0.373L0.664,10.159
			c-0.41,0.086-0.722,0.416-0.655,0.716l0.428,1.951c0.067,0.306,0.453,0.471,0.899,0.372l4.739-1.033v13.947
			c0,0.342,0.244,0.623,0.562,0.623h2.245c0.312,0,0.556-0.281,0.556-0.623V11.431l4.871-1.062
			C14.761,10.265,15.036,9.953,14.968,9.648L14.968,9.648z"/>
	</g>
	<path fill="#4E4E4E" d="M18.629,12.289c3.895,0,5.598,1.004,5.598,5.658v8.214c0,0.335-0.244,0.608-0.548,0.608h-1.611
		c-0.366,0-0.58-0.122-0.64-0.517l-0.091-0.609c-1.094,1.004-2.433,1.339-3.833,1.339c-2.616,0-5.05-1.703-5.05-4.624
		c0-3.163,2.739-4.715,6.023-4.715h2.618v-0.426c0-1.825-0.914-1.978-2.92-1.978h-2.708c-0.364,0-0.639-0.273-0.639-0.669V13.11
		c0-0.365,0.274-0.639,0.639-0.67C16.529,12.349,17.808,12.289,18.629,12.289 M21.124,20.228h-2.617
		c-1.886,0-3.011,0.67-3.011,1.978c0,1.37,1.094,1.978,2.403,1.978c1.126,0,2.402-0.456,3.225-1.276V20.228L21.124,20.228z"/>
	<path fill="#00AEEF" d="M10.752,3.643c0,2.013-1.632,3.644-3.643,3.644c-2.013,0-3.645-1.631-3.645-3.644
		C3.464,1.63,5.096,0,7.109,0C9.12,0,10.752,1.63,10.752,3.643"/>
</g>
</svg>
